<?xml version="1.0" standalone="no"?>
<!DOCTYPE svg PUBLIC "-//W3C//DTD SVG 20010904//EN"
 "http://www.w3.org/TR/2001/REC-SVG-20010904/DTD/svg10.dtd">
<svg version="1.0" xmlns="http://www.w3.org/2000/svg"
 width="1536.000000pt" height="1536.000000pt" viewBox="0 0 1536.000000 1536.000000"
 preserveAspectRatio="xMidYMid meet">
<metadata>
Created by potrace 1.14, written by Peter Selinger 2001-2017
</metadata>
<g transform="translate(0.000000,1536.000000) scale(0.100000,-0.100000)"
fill="#000000" stroke="none">
<path d="M10532 15234 c-61 -23 -140 -46 -452 -133 -313 -86 -582 -102 -944
-55 -191 25 -217 26 -516 20 -173 -3 -346 -10 -385 -16 -86 -13 -259 -63 -334
-97 -31 -14 -94 -42 -141 -63 -110 -48 -282 -171 -396 -285 -67 -67 -110 -121
-164 -210 -85 -137 -117 -211 -132 -298 -5 -34 -12 -72 -14 -84 -2 -12 -13
-24 -23 -28 -10 -3 -48 -24 -83 -47 -34 -23 -92 -58 -128 -78 -145 -81 -450
-355 -467 -420 l-9 -33 -159 -33 c-88 -18 -184 -33 -212 -34 -67 0 -324 -66
-473 -120 -113 -41 -566 -254 -665 -313 -27 -16 -67 -36 -88 -43 -43 -15 -80
-39 -151 -98 -55 -46 -171 -129 -296 -213 -47 -31 -125 -87 -175 -124 -49 -37
-112 -78 -140 -92 -27 -14 -90 -59 -138 -101 -48 -41 -107 -89 -130 -106 -23
-16 -71 -66 -107 -111 -36 -45 -75 -89 -88 -99 -13 -10 -54 -58 -93 -107 -39
-48 -91 -106 -116 -127 -24 -21 -74 -79 -109 -127 -36 -48 -83 -102 -105 -120
-52 -41 -186 -211 -266 -337 -33 -53 -76 -115 -94 -137 -17 -22 -51 -81 -75
-131 -39 -84 -209 -375 -273 -468 -48 -69 -116 -203 -190 -371 -39 -88 -78
-173 -88 -190 -77 -140 -113 -224 -134 -312 -13 -54 -29 -101 -36 -106 -15
-10 -33 -71 -33 -117 0 -47 -8 -56 -54 -63 -55 -9 -156 -59 -194 -98 -19 -18
-42 -49 -51 -68 -26 -52 -59 -272 -67 -444 -5 -108 -10 -150 -20 -154 -7 -2
-66 13 -131 35 -155 53 -180 57 -219 35 -107 -61 -152 -103 -289 -273 -51 -63
-129 -159 -173 -213 -43 -54 -94 -122 -113 -152 l-34 -53 -95 -4 c-118 -4
-162 -23 -192 -82 -11 -22 -41 -68 -66 -101 -25 -33 -83 -116 -129 -183 l-83
-124 0 -206 0 -207 51 95 c59 113 258 408 335 500 30 36 63 80 72 99 l17 34
136 -7 c79 -4 167 -15 210 -26 41 -10 112 -28 159 -40 173 -44 328 -93 445
-139 66 -27 158 -61 205 -76 47 -15 139 -53 205 -85 66 -32 171 -79 233 -103
142 -57 186 -83 262 -154 l61 -56 -53 -34 c-89 -58 -281 -218 -324 -269 -22
-27 -58 -75 -79 -106 -44 -68 -13 -63 -305 -43 -267 19 -983 23 -1155 7 -66
-7 -200 -22 -297 -34 l-178 -21 0 -125 0 -125 73 7 c39 4 142 16 228 27 193
24 412 35 719 38 273 2 724 22 795 36 15 3 24 -5 35 -28 13 -27 20 -32 50 -32
32 0 36 3 48 40 7 22 29 56 48 75 18 20 34 43 34 52 0 34 104 141 238 244 213
165 345 223 580 254 83 11 84 11 109 -14 34 -34 82 -44 100 -20 7 10 13 24 13
31 0 23 138 16 268 -13 208 -47 523 -224 682 -384 65 -65 218 -291 259 -381
72 -160 132 -401 172 -687 38 -273 21 -331 -183 -639 -91 -137 -136 -193 -242
-301 -120 -123 -138 -137 -221 -177 -50 -24 -171 -71 -270 -104 -154 -52 -197
-62 -300 -72 -163 -16 -374 -7 -505 21 -123 26 -308 109 -429 193 -42 29 -103
70 -136 89 -33 20 -82 60 -110 88 -27 28 -75 67 -107 86 -36 22 -67 51 -87 82
-40 63 -119 139 -153 147 -22 6 -33 0 -63 -29 -19 -20 -43 -36 -51 -36 -34 0
-456 -165 -599 -234 -176 -85 -254 -132 -384 -230 -53 -40 -172 -128 -266
-196 -93 -67 -209 -154 -257 -193 l-88 -71 0 -124 0 -124 38 31 c151 123 200
161 302 233 63 45 178 127 255 182 314 225 465 310 780 439 77 32 176 77 220
100 l79 43 41 -61 c27 -41 60 -73 102 -100 33 -23 90 -68 126 -102 36 -33 98
-79 139 -103 70 -40 74 -43 70 -73 -2 -18 6 -118 17 -222 24 -221 26 -284 9
-289 -61 -17 -436 -56 -543 -57 -71 0 -166 -6 -210 -13 -455 -72 -508 -83
-775 -155 -192 -53 -335 -98 -512 -164 l-138 -51 0 -107 0 -108 83 39 c112 52
327 131 472 174 225 66 450 125 515 136 36 6 134 24 219 41 108 21 221 34 380
44 124 8 230 15 236 15 5 0 -53 -34 -130 -76 -357 -195 -840 -521 -1040 -703
-49 -45 -151 -134 -225 -198 -74 -65 -186 -164 -249 -221 -63 -57 -148 -129
-188 -159 l-73 -55 0 -368 0 -368 74 -50 c108 -74 282 -159 356 -176 36 -8
112 -20 170 -26 102 -12 110 -11 275 20 309 58 400 87 579 187 202 113 357
221 450 315 49 49 86 82 82 73 -3 -9 -15 -112 -26 -228 -11 -117 -25 -252 -31
-302 -48 -405 -50 -438 -56 -797 l-6 -368 6035 0 c4915 0 6038 2 6046 13 14
17 35 96 33 127 -1 14 -4 81 -7 149 l-6 124 26 -7 c53 -13 276 -26 464 -26
170 0 214 4 366 30 183 31 356 80 469 132 l67 31 0 221 0 221 -112 105 c-61
58 -143 131 -182 164 -39 32 -111 98 -161 145 -49 48 -142 125 -205 172 -63
47 -155 121 -205 163 -49 43 -124 102 -165 130 -41 29 -196 138 -345 241 -241
168 -345 243 -508 368 -77 59 -180 116 -298 168 -125 53 -141 64 -84 55 22 -3
157 -10 300 -15 143 -6 301 -14 351 -20 50 -6 182 -10 295 -10 262 2 592 -16
693 -36 43 -8 141 -20 217 -25 128 -9 316 -32 382 -46 l27 -6 0 91 c0 86 -1
91 -22 95 -59 12 -266 37 -383 46 -71 5 -165 17 -208 25 -94 18 -403 34 -662
35 -104 1 -239 5 -300 11 -60 5 -231 14 -380 19 -148 5 -332 13 -408 16 l-138
7 -21 41 c-11 23 -33 59 -48 81 -16 22 -42 87 -60 145 -18 58 -43 130 -56 161
-19 46 -61 258 -51 264 1 1 38 14 82 29 92 32 196 89 267 146 l49 39 72 -20
c40 -11 104 -30 142 -44 39 -13 147 -47 240 -76 94 -28 249 -82 345 -120 96
-38 222 -88 280 -111 155 -61 463 -208 730 -347 212 -111 514 -261 526 -261 2
0 4 55 4 123 l-1 122 -137 67 c-75 37 -229 115 -342 172 -347 178 -608 292
-970 427 -245 91 -551 182 -775 230 -33 7 -69 18 -80 26 -34 23 -95 15 -152
-20 -29 -18 -90 -55 -135 -83 -93 -57 -191 -99 -271 -115 -41 -9 -88 -7 -200
5 -81 9 -198 16 -260 16 -131 0 -290 26 -452 75 -60 18 -153 42 -205 54 -75
17 -121 35 -210 84 -112 61 -223 150 -235 188 -7 21 -159 245 -272 401 -39 54
-92 134 -117 178 -44 76 -47 87 -56 183 -5 56 -12 111 -16 121 -8 21 10 153
36 271 10 44 26 116 35 160 39 180 94 319 138 348 23 15 44 44 144 202 152
239 214 327 268 380 67 67 175 142 278 195 64 33 69 34 95 20 45 -26 142 -17
273 24 115 36 116 36 295 36 132 -1 190 -5 219 -16 22 -8 80 -26 130 -40 49
-14 117 -41 150 -59 33 -18 87 -40 120 -50 33 -9 89 -34 125 -54 36 -21 88
-50 115 -65 139 -74 296 -215 359 -326 21 -35 49 -77 62 -93 21 -24 24 -39 24
-102 0 -93 12 -119 64 -141 36 -15 121 -19 734 -30 699 -12 732 -14 877 -40
44 -8 140 -22 213 -32 l132 -18 0 113 c0 72 -4 113 -11 113 -5 0 -103 16 -217
36 -295 50 -457 57 -1017 43 -253 -7 -487 -13 -519 -13 l-59 -1 -43 70 c-24
39 -64 111 -89 162 -38 76 -62 109 -138 186 -51 51 -125 115 -164 141 -40 26
-75 51 -78 56 -20 32 266 185 598 322 95 38 210 86 257 105 155 65 512 193
690 249 96 30 198 63 227 74 116 43 345 103 450 118 l113 15 0 256 0 256 -82
49 c-52 30 -118 83 -178 141 -121 118 -303 279 -357 316 -23 16 -81 50 -128
74 -84 44 -87 45 -158 39 -103 -9 -370 -78 -438 -114 -32 -16 -60 -30 -62 -30
-3 0 -7 82 -10 183 -5 163 -9 197 -40 325 -40 166 -53 186 -157 234 -58 27
-80 31 -203 38 -76 4 -139 9 -140 11 -8 13 -104 320 -141 451 -26 92 -68 206
-100 275 -47 103 -52 118 -37 121 16 3 13 17 -31 135 -58 158 -73 188 -115
229 -33 32 -41 56 -23 74 10 10 -25 61 -220 315 -71 91 -154 208 -185 260
-148 245 -271 389 -490 574 -176 150 -407 351 -516 450 -42 39 -104 86 -138
105 -34 19 -101 58 -149 86 -48 28 -112 59 -142 68 -51 16 -239 132 -240 148
0 3 30 9 68 12 110 10 182 26 269 61 79 32 212 115 248 155 10 11 24 20 32 20
44 0 338 134 449 205 76 49 116 92 226 246 117 162 176 283 289 584 88 237
144 358 179 390 32 29 41 59 29 95 -20 57 -63 63 -166 24 -43 -16 -121 -33
-213 -45 -174 -22 -225 -23 -310 -4 -36 8 -164 35 -285 59 -181 37 -266 61
-485 136 -184 64 -294 108 -360 144 -113 62 -246 120 -315 137 -27 7 -51 13
-53 14 -1 1 13 35 33 76 19 40 35 79 35 86 0 6 29 49 63 95 80 105 87 118 87
167 0 82 -54 99 -168 55z m-2495 -1337 c68 -26 160 -56 205 -67 183 -44 381
-173 504 -327 87 -109 118 -153 111 -159 -3 -3 -72 10 -153 29 -82 19 -171 39
-199 45 -27 5 -104 29 -170 51 -65 23 -144 44 -175 47 -96 10 -937 -15 -1035
-30 -49 -8 -144 -17 -210 -21 -66 -3 -187 -13 -270 -20 -82 -8 -150 -13 -152
-11 -5 5 171 153 222 187 28 18 63 43 79 56 16 14 56 38 90 55 34 17 86 47
116 68 30 20 89 55 130 77 68 37 84 41 175 48 55 4 143 10 195 15 52 4 167 7
255 5 l160 -2 122 -46z m199 -587 c60 -11 150 -27 199 -36 50 -9 149 -31 220
-49 72 -19 200 -52 285 -74 85 -22 200 -57 255 -77 98 -35 123 -42 297 -82 48
-11 126 -37 175 -57 48 -20 147 -58 218 -85 388 -145 567 -229 705 -330 306
-224 699 -460 767 -460 39 0 55 -13 253 -200 91 -86 231 -213 311 -282 243
-211 340 -324 481 -561 38 -65 119 -184 180 -265 61 -81 132 -185 158 -232 26
-47 62 -110 80 -140 79 -132 242 -531 296 -723 24 -87 56 -186 69 -219 14 -33
22 -64 20 -68 -3 -5 4 -46 14 -92 11 -47 27 -179 36 -294 22 -307 33 -381 62
-414 13 -16 23 -41 23 -58 0 -40 -20 -134 -30 -146 -5 -5 -31 5 -60 24 -30 19
-69 35 -95 37 l-44 5 -5 72 c-3 39 -8 148 -10 241 -5 146 -23 305 -42 367 -4
13 -1 16 10 12 20 -8 20 -11 -8 73 -13 39 -32 120 -42 180 l-17 108 -61 60
c-157 154 -453 409 -551 475 -27 18 -80 57 -117 86 l-67 52 50 4 c59 6 82 25
82 67 0 57 -39 81 -276 172 -73 27 -195 81 -272 119 -162 79 -207 94 -366 115
-164 22 -307 64 -424 123 -55 28 -136 65 -180 81 -44 16 -123 47 -175 68 -169
71 -304 121 -355 134 -27 6 -51 13 -53 15 -2 1 5 19 16 41 28 55 35 121 22
215 -8 55 -20 97 -38 127 -41 69 -129 150 -228 209 -49 29 -104 66 -123 81
l-34 28 13 149 c20 241 5 537 -31 628 -21 51 -93 148 -157 208 -50 48 -71 60
-143 83 -108 34 -204 43 -245 22 -69 -36 -66 -18 -65 -408 2 -335 1 -351 -16
-344 -63 27 -257 79 -428 115 -110 23 -204 44 -208 47 -4 3 -5 60 -1 128 7
117 -3 279 -27 447 -21 153 -84 249 -187 286 -133 49 -250 14 -315 -94 -9 -16
-33 -54 -53 -84 -61 -96 -67 -136 -59 -363 l7 -200 -198 6 c-108 4 -228 7
-265 7 l-69 0 2 168 c2 143 -1 180 -20 255 -12 48 -29 102 -38 120 -34 64 -94
137 -120 143 -15 4 -86 4 -159 2 -122 -5 -136 -8 -184 -34 -38 -22 -55 -39
-66 -67 -8 -20 -15 -43 -15 -49 0 -6 -10 -32 -22 -57 -20 -39 -24 -69 -30
-206 -4 -88 -10 -182 -15 -210 l-8 -50 -80 -2 c-160 -5 -321 -24 -407 -49 -17
-5 -18 9 -15 198 2 201 2 204 -26 280 -36 97 -78 142 -152 164 -115 33 -254
-13 -357 -118 -90 -91 -103 -122 -103 -253 0 -64 5 -118 11 -130 9 -15 9 -57
-2 -170 -7 -82 -13 -160 -14 -173 0 -17 -10 -27 -37 -38 -51 -21 -309 -178
-373 -226 -28 -21 -52 -38 -54 -38 -2 0 -3 62 -2 138 1 182 -19 412 -42 460
-24 51 -72 75 -140 68 -66 -6 -109 -31 -144 -83 -31 -46 -58 -137 -58 -198 0
-22 -7 -62 -16 -90 -11 -37 -17 -116 -21 -297 -6 -265 -5 -276 51 -438 13 -36
26 -97 30 -136 6 -68 16 -107 50 -185 l15 -36 -102 -27 c-111 -30 -183 -53
-352 -114 -70 -25 -137 -42 -184 -46 -41 -3 -109 -15 -150 -25 -42 -11 -112
-25 -156 -31 -185 -27 -623 -140 -798 -206 -128 -49 -280 -120 -328 -155 -34
-24 -46 -61 -30 -95 17 -39 48 -45 127 -24 38 10 163 44 278 75 115 30 211 53
213 51 3 -3 -44 -30 -105 -60 -129 -65 -268 -172 -392 -302 -46 -49 -151 -155
-232 -236 -179 -179 -200 -213 -204 -341 -4 -88 -50 -294 -94 -422 -12 -33
-30 -114 -40 -180 -11 -66 -25 -151 -31 -189 l-12 -68 -53 5 c-95 10 -96 13
-89 130 3 56 10 134 15 172 18 144 24 342 10 374 -7 17 -15 31 -19 31 -3 0
-12 4 -19 9 -20 12 27 154 83 256 41 73 96 183 226 451 27 55 73 136 102 180
29 43 76 120 105 171 28 50 79 133 113 185 33 51 74 121 90 156 15 34 43 81
62 103 19 21 56 77 82 124 26 47 64 104 84 127 20 24 54 66 75 93 22 28 74 84
116 125 42 41 96 105 120 142 24 37 63 81 86 98 23 17 74 73 113 124 39 52 86
107 106 121 19 15 57 57 85 95 29 39 72 82 103 102 29 20 87 66 129 102 41 36
91 73 111 81 20 8 80 48 134 88 54 41 121 86 149 101 29 15 78 49 110 75 33
27 74 55 91 65 18 9 71 45 118 80 54 41 139 90 234 135 81 39 152 71 156 71 3
0 64 27 133 59 350 164 461 201 847 282 314 65 560 97 900 114 66 4 149 11
185 17 101 16 317 25 666 26 282 2 335 0 430 -18z m-1497 -1312 c-3 -249 10
-296 110 -400 64 -68 120 -85 221 -69 41 7 93 21 115 30 107 47 165 194 196
495 11 101 16 126 29 127 88 2 484 -3 495 -8 20 -7 20 -121 0 -159 -18 -35
-19 -78 -4 -178 10 -68 16 -79 65 -139 35 -42 67 -70 93 -80 22 -9 42 -21 46
-27 8 -13 104 -60 122 -60 29 0 117 53 160 96 70 70 130 220 148 367 6 47 10
57 24 52 9 -2 83 -18 166 -35 194 -39 357 -82 431 -113 l59 -25 6 -109 c7
-118 25 -186 73 -266 37 -61 85 -91 189 -118 186 -48 248 -35 298 62 16 32 29
65 29 74 0 21 5 20 79 -22 153 -84 192 -126 212 -224 12 -60 1 -97 -42 -145
-20 -21 -20 -21 -112 -3 -51 10 -125 27 -165 38 -39 11 -134 29 -210 41 -75
12 -177 30 -227 41 -167 36 -459 80 -590 89 -71 4 -166 13 -210 19 -100 13
-315 29 -645 46 -140 7 -298 19 -350 25 -104 14 -590 8 -850 -10 -80 -5 -210
-14 -290 -20 -154 -10 -477 -72 -870 -165 -107 -26 -260 -62 -340 -80 l-145
-33 -17 21 c-10 12 -25 43 -34 69 l-16 48 35 40 c38 45 51 81 67 190 11 69 15
79 58 123 26 27 76 70 112 97 78 58 287 190 300 190 6 0 10 -22 10 -50 0 -58
41 -223 69 -277 25 -49 66 -88 113 -107 94 -40 225 6 316 109 70 80 96 179
111 429 6 84 13 131 21 136 19 12 164 41 244 50 39 4 122 8 184 9 l114 1 -3
-192z m1206 -738 c72 -6 164 -15 206 -20 41 -6 137 -15 212 -20 76 -6 158 -15
184 -20 25 -6 107 -15 182 -21 75 -5 163 -16 196 -24 33 -7 107 -21 165 -30
58 -9 161 -29 230 -45 69 -16 172 -36 230 -45 102 -15 239 -48 268 -64 9 -5
-20 -18 -85 -37 -89 -26 -110 -29 -228 -27 -71 1 -193 9 -270 18 -77 8 -201
20 -275 26 -117 9 -355 36 -608 69 -40 6 -141 10 -225 10 -84 0 -208 5 -277
11 -128 11 -881 14 -1185 4 -93 -2 -264 -7 -380 -11 -115 -3 -277 -14 -360
-25 -135 -18 -672 -45 -683 -35 -4 5 2 6 183 49 61 15 166 40 235 58 69 17
159 36 200 44 41 7 111 19 155 28 44 9 121 23 170 32 175 33 497 52 1019 61
214 3 421 10 460 14 107 11 139 11 281 0z m2253 -379 c129 -32 310 -105 237
-96 -165 21 -423 59 -439 64 -16 6 -12 11 25 34 24 14 47 26 52 27 4 0 60 -13
125 -29z m-2333 -66 c323 -6 540 -23 735 -55 63 -11 185 -24 270 -30 85 -6
182 -15 215 -20 33 -5 146 -16 250 -25 198 -16 530 -53 845 -95 77 -10 562
-66 705 -81 55 -6 156 -25 225 -44 69 -18 141 -36 160 -40 19 -4 77 -25 128
-47 51 -21 163 -66 249 -98 231 -89 381 -176 563 -327 41 -34 125 -100 185
-148 61 -47 167 -139 236 -203 106 -98 125 -119 116 -134 -9 -13 -6 -22 15
-42 55 -56 136 -254 157 -386 7 -38 11 -247 11 -509 l0 -444 -57 6 c-214 22
-365 28 -431 18 -39 -6 -108 -11 -154 -12 -46 0 -103 -4 -128 -7 -71 -11 -79
-36 -96 -305 -7 -122 -18 -256 -24 -297 -5 -41 -15 -184 -20 -316 -5 -133 -13
-249 -16 -258 -5 -13 -23 -16 -103 -16 -53 -1 -116 -5 -141 -10 -27 -5 -63 -5
-92 1 -56 12 -88 5 -253 -61 -66 -26 -144 -50 -174 -54 -102 -13 -176 -52
-263 -137 l-79 -77 -282 79 c-345 98 -399 114 -606 178 -90 28 -236 66 -325
85 -290 63 -529 124 -641 164 -61 21 -135 45 -165 52 -30 7 -58 15 -63 17 -4
2 6 21 21 41 96 122 145 306 158 597 8 173 1 212 -70 354 -102 204 -211 346
-323 418 -63 40 -347 178 -423 204 -144 51 -368 100 -525 115 -170 17 -207 16
-350 -10 -49 -8 -162 -22 -250 -30 l-160 -15 -143 -71 c-166 -81 -200 -103
-342 -221 -68 -56 -124 -114 -159 -162 -169 -232 -261 -508 -261 -783 0 -123
18 -201 71 -305 l28 -57 -47 -6 c-26 -4 -114 -20 -197 -36 -82 -16 -188 -34
-235 -40 -47 -6 -143 -27 -215 -46 -71 -19 -213 -56 -315 -83 -262 -69 -596
-172 -763 -235 -233 -88 -211 -84 -265 -39 -26 21 -71 56 -100 77 -64 47 -394
211 -456 228 -43 11 -46 14 -50 52 -8 65 -25 323 -36 551 -15 303 -18 341 -42
428 -23 89 -47 111 -92 88 -13 -7 -33 -10 -45 -6 -24 7 -373 -8 -571 -26 -69
-6 -165 -20 -213 -31 -49 -11 -91 -17 -94 -14 -7 7 26 315 43 399 8 38 14 89
14 115 0 26 11 92 24 147 13 55 26 127 30 159 4 33 20 99 36 147 36 107 90
335 90 378 0 18 5 75 12 127 l11 94 201 203 c253 254 352 332 556 432 85 42
180 89 210 106 115 63 299 149 404 189 118 44 203 60 461 85 88 8 230 21 315
30 85 8 232 19 325 25 94 6 229 15 300 20 72 5 175 9 231 10 56 0 186 11 290
25 156 21 261 27 604 36 228 6 550 14 715 18 165 4 307 6 315 5 8 -2 155 -5
325 -9z m5692 -1752 c131 -10 134 -13 163 -179 18 -108 25 -188 28 -356 l4
-217 -159 -106 c-87 -58 -176 -119 -199 -136 l-41 -30 -109 10 c-61 5 -117 13
-127 17 -15 5 -17 21 -17 110 0 120 4 124 81 75 132 -83 247 -58 280 62 7 23
12 101 12 174 -1 112 -4 139 -21 175 -13 26 -31 109 -47 213 -14 94 -28 182
-31 196 l-5 26 53 -13 c29 -8 90 -17 135 -21z m-11643 -343 c9 -36 22 -83 28
-105 25 -100 84 -145 188 -145 34 0 70 5 81 10 18 10 19 8 13 -62 -3 -40 -10
-106 -15 -146 -5 -40 -9 -94 -9 -119 0 -24 -3 -43 -7 -41 -5 2 -57 28 -118 59
-60 31 -144 71 -185 89 -41 18 -97 46 -124 63 l-49 31 7 215 c7 217 20 394 31
423 3 8 34 31 68 52 l62 36 6 -147 c3 -92 12 -173 23 -213z m5996 -78 c226
-65 223 -64 440 -170 144 -70 194 -100 227 -133 67 -71 152 -197 204 -303 l49
-99 0 -131 c0 -234 -29 -390 -90 -494 -35 -59 -102 -132 -122 -132 -11 0 -72
13 -136 29 -64 17 -157 35 -207 41 -49 6 -130 20 -180 30 -49 10 -133 24 -185
30 -52 7 -135 20 -185 31 -115 24 -292 25 -443 2 -96 -14 -119 -15 -150 -3
-49 18 -141 15 -286 -9 -66 -11 -170 -25 -231 -31 -60 -6 -159 -18 -218 -26
l-108 -17 -31 29 c-17 16 -47 63 -66 104 -32 67 -36 86 -40 177 -9 228 61 461
199 663 58 83 85 110 203 204 77 62 146 106 239 153 120 60 141 67 237 80 162
23 317 31 520 28 l185 -2 175 -51z m6627 -333 c90 -55 219 -164 398 -339 61
-59 135 -122 165 -142 30 -19 78 -48 105 -66 49 -30 123 -98 114 -105 -2 -2
-53 -11 -114 -20 -220 -32 -1126 -346 -1490 -517 -60 -28 -146 -66 -190 -85
-44 -18 -168 -76 -275 -128 -163 -80 -210 -108 -289 -172 l-93 -78 -37 18
c-20 9 -63 27 -96 40 -33 12 -88 36 -121 53 -33 17 -89 38 -123 47 -34 9 -87
27 -117 40 -30 13 -71 27 -90 31 -19 3 -34 10 -32 13 2 4 71 69 153 143 83 75
186 170 230 212 44 42 124 106 178 142 54 36 162 113 239 171 78 58 178 127
223 153 44 27 133 85 196 131 162 117 511 337 635 403 59 31 285 102 333 105
7 1 51 -22 98 -50z m-13209 -48 c64 -22 136 -44 159 -50 23 -6 81 -38 130 -69
51 -34 138 -79 208 -106 142 -56 200 -88 286 -157 116 -92 375 -355 440 -446
98 -138 193 -254 246 -302 l48 -44 -40 -8 c-22 -4 -74 -13 -115 -19 -41 -7
-98 -21 -127 -31 l-52 -17 -42 54 c-74 96 -143 151 -263 208 -357 171 -460
218 -541 247 -49 17 -128 49 -175 69 -105 46 -308 112 -415 135 -44 10 -88 22
-99 27 -10 6 -68 22 -128 38 l-110 27 134 140 c73 76 165 176 203 221 56 66
108 113 133 121 1 1 55 -17 120 -38z m11398 -285 c10 -3 76 -10 146 -15 117
-9 288 -39 288 -51 -1 -3 -35 -29 -78 -58 -42 -29 -141 -101 -218 -160 -78
-59 -173 -129 -210 -157 -38 -27 -167 -146 -286 -264 l-218 -214 0 159 c0 87
5 213 10 279 5 66 12 204 16 306 l7 186 262 -2 c144 -2 270 -5 281 -9z m-9481
-443 l0 -443 -114 0 c-134 0 -151 8 -151 74 0 28 -12 63 -38 111 -65 118 -268
381 -394 510 -65 66 -118 123 -118 126 0 28 459 69 730 65 l84 -1 1 -442z
m4360 -327 c80 -15 253 -49 400 -77 55 -11 158 -28 228 -39 71 -11 161 -28
200 -39 40 -11 142 -34 227 -52 85 -17 236 -57 335 -89 182 -59 396 -114 669
-170 81 -17 223 -54 315 -82 234 -71 297 -89 566 -163 131 -36 241 -68 243
-70 3 -3 -2 -13 -10 -22 -9 -10 -45 -61 -80 -113 -35 -52 -91 -134 -124 -181
-104 -150 -244 -491 -244 -595 0 -16 -9 -63 -20 -104 -37 -142 -46 -270 -28
-441 8 -85 18 -161 22 -170 6 -13 -1 -18 -31 -23 -21 -4 -177 -41 -348 -82
-170 -41 -393 -94 -495 -119 -102 -24 -239 -53 -305 -65 -66 -12 -178 -36
-250 -55 -199 -52 -594 -134 -750 -155 -77 -10 -189 -30 -250 -44 -60 -14
-156 -30 -213 -35 -120 -13 -126 -14 -252 -51 -137 -41 -157 -43 -277 -30
-101 11 -165 25 -303 64 -30 9 -154 39 -275 66 -121 28 -268 64 -326 80 -59
16 -169 43 -245 60 -77 17 -186 46 -244 64 -58 19 -139 39 -180 46 -41 7 -129
28 -195 47 -130 36 -460 99 -755 143 -118 17 -184 31 -183 38 2 7 22 42 46 79
109 171 137 240 157 384 11 83 10 100 -24 360 -8 58 -31 179 -51 268 -58 263
-112 391 -246 589 -50 73 -89 135 -87 137 1 1 69 27 150 58 144 54 553 175
798 236 69 17 176 44 238 60 62 16 147 35 190 41 89 13 412 71 557 101 138 28
384 66 480 74 44 3 145 18 225 32 268 47 609 65 745 39z m2839 -2653 c98 -151
316 -430 403 -515 57 -57 129 -113 208 -163 131 -83 117 -78 540 -198 190 -53
293 -70 495 -78 107 -5 234 -11 282 -15 l88 -7 9 -36 c5 -20 12 -69 15 -109 4
-41 15 -97 25 -125 38 -106 49 -144 65 -212 18 -76 30 -103 98 -215 32 -51 47
-87 47 -112 1 -21 2 -44 2 -50 1 -7 -18 -55 -40 -105 -41 -93 -130 -408 -152
-536 -6 -37 -10 -103 -8 -146 3 -63 10 -89 36 -139 l31 -61 -166 -55 c-175
-58 -284 -87 -392 -106 -36 -6 -204 -58 -375 -115 -371 -124 -457 -149 -747
-220 -123 -30 -315 -85 -428 -124 -113 -38 -365 -110 -560 -160 -682 -175
-926 -239 -1120 -296 -412 -120 -474 -137 -790 -216 l-325 -81 -200 -8 c-154
-6 -203 -5 -215 5 -8 7 -25 17 -37 24 -23 12 -274 65 -503 107 -80 14 -194 39
-255 55 -60 16 -183 47 -271 69 -89 21 -269 74 -400 116 -349 112 -404 129
-674 200 -135 35 -265 71 -290 79 -25 7 -117 36 -205 64 -88 28 -248 76 -355
106 -107 31 -251 80 -320 109 -122 52 -203 78 -405 131 -55 14 -158 44 -230
65 -153 46 -245 70 -415 109 -69 16 -209 61 -312 100 -102 39 -257 96 -345
127 -87 30 -161 59 -166 63 -4 4 -1 24 8 44 40 97 66 233 75 397 5 90 12 176
15 190 3 14 32 62 65 106 33 43 74 108 92 144 l33 65 -1 215 c0 224 -17 383
-52 498 -17 54 -17 59 0 92 24 48 24 194 -2 375 -11 77 -20 143 -20 146 0 4
42 -15 93 -41 117 -61 182 -83 332 -110 108 -20 142 -22 345 -17 254 6 283 11
500 86 173 59 310 117 386 162 52 32 293 267 345 338 l26 35 164 -23 c243 -34
677 -117 814 -155 66 -19 167 -44 225 -56 58 -12 152 -36 210 -55 58 -18 150
-43 205 -54 55 -12 159 -37 230 -56 237 -62 780 -175 843 -175 18 0 68 -7 110
-16 113 -23 190 -20 342 14 74 17 185 35 245 41 61 5 149 19 196 30 47 11 158
29 246 40 168 22 477 84 748 150 88 22 214 49 280 61 66 11 203 41 305 65 102
25 325 78 495 119 171 41 328 79 350 84 22 6 45 10 50 10 6 1 32 -33 59 -75z"/>
<path d="M10466 12338 c-65 -48 -113 -223 -71 -258 13 -10 15 -53 14 -269 0
-291 13 -512 36 -588 39 -131 157 -208 238 -155 91 60 135 181 172 467 39 306
2 479 -151 712 -44 65 -63 84 -94 97 -56 22 -109 20 -144 -6z"/>
<path d="M4041 12122 c-74 -73 -130 -354 -131 -647 0 -150 27 -274 82 -377 41
-78 120 -148 166 -148 34 0 82 36 82 61 0 7 9 23 20 34 l21 22 -20 138 c-19
129 -20 158 -10 461 11 347 9 364 -36 364 -20 0 -25 5 -25 26 0 85 -90 125
-149 66z"/>
<path d="M11433 11768 c-32 -15 -56 -80 -42 -115 6 -15 16 -31 22 -35 9 -5 9
-10 -1 -20 -8 -8 -12 -45 -12 -107 0 -53 -7 -163 -16 -246 -23 -230 -29 -395
-15 -438 37 -110 183 -120 236 -16 22 42 82 237 89 289 16 114 24 310 16 368
-17 119 -100 257 -186 308 -45 26 -58 28 -91 12z"/>
<path d="M3348 11420 c-53 -41 -70 -126 -72 -365 -1 -103 20 -160 81 -222 67
-66 119 -25 144 114 17 94 17 350 0 410 -21 75 -98 107 -153 63z"/>
<path d="M12201 11072 c-19 -9 -38 -24 -41 -32 -4 -8 -15 -29 -24 -47 -24 -47
-19 -399 7 -458 42 -93 96 -110 153 -50 48 52 97 211 97 320 0 112 -10 158
-44 205 -28 38 -82 80 -104 80 -5 0 -25 -8 -44 -18z"/>
<path d="M4165 10240 c-16 -4 -49 -8 -72 -9 -47 -1 -168 -42 -228 -77 -22 -13
-63 -47 -92 -76 -53 -54 -157 -203 -169 -241 -4 -12 -17 -38 -29 -57 -12 -19
-33 -64 -48 -100 -23 -58 -26 -82 -30 -225 -5 -156 -4 -162 23 -238 69 -188
148 -267 403 -402 152 -80 188 -90 342 -89 112 0 149 5 265 33 248 61 341 121
451 289 82 126 94 159 114 324 24 199 23 208 -46 391 -89 237 -95 247 -203
314 -50 31 -109 69 -131 84 -81 57 -436 108 -550 79z"/>
<path d="M10488 10085 c-107 -37 -289 -140 -340 -193 -61 -62 -205 -301 -222
-366 -16 -60 -21 -126 -20 -281 0 -85 5 -123 21 -166 43 -118 150 -248 294
-358 86 -67 104 -76 219 -114 41 -14 101 -34 133 -46 71 -26 195 -38 234 -22
15 6 71 15 123 20 138 13 185 36 354 173 129 105 146 123 161 165 9 26 34 84
54 128 59 125 74 191 75 340 1 151 -8 193 -71 316 -33 65 -54 94 -84 114 -24
18 -51 50 -71 87 -23 43 -43 65 -77 86 -70 42 -185 92 -212 92 -13 0 -53 6
-89 14 -84 19 -256 36 -345 35 -46 0 -93 -8 -137 -24z"/>
<path d="M7330 7683 c-163 -6 -335 -24 -408 -42 -42 -10 -93 -22 -113 -25 -46
-8 -73 -37 -65 -69 11 -47 86 -59 206 -32 93 21 481 31 590 16 120 -17 403
-68 476 -87 48 -12 66 -13 87 -3 34 16 54 62 39 94 -22 49 -38 53 -402 120
-84 15 -282 36 -314 33 -12 -1 -55 -3 -96 -5z"/>
<path d="M2770 6064 c-89 -17 -129 -36 -164 -74 -20 -22 -36 -47 -36 -55 0 -8
-10 -20 -22 -26 -81 -43 -147 -138 -183 -263 -24 -82 -17 -238 15 -319 33 -87
105 -155 233 -217 127 -62 214 -81 377 -83 122 -2 127 -1 190 30 89 44 153
110 200 208 51 104 71 196 72 320 1 111 -11 156 -63 231 -80 116 -186 194
-315 229 -59 16 -256 28 -304 19z m222 -195 c110 -24 173 -67 235 -160 35 -53
43 -108 32 -207 -16 -142 -67 -245 -142 -284 -36 -18 -57 -21 -139 -20 -116 1
-195 20 -304 73 -105 50 -137 86 -158 178 -20 87 -20 111 -1 186 30 119 56
154 144 200 86 44 221 58 333 34z"/>
<path d="M11975 5835 c-41 -15 -85 -56 -85 -80 0 -14 -10 -19 -70 -30 -51 -11
-106 -40 -186 -101 -72 -55 -110 -100 -137 -164 -24 -56 -57 -206 -57 -259 0
-102 109 -249 244 -330 82 -49 223 -103 283 -109 54 -5 149 20 227 60 190 97
329 324 343 558 4 82 2 103 -17 152 -26 69 -102 157 -169 195 -25 14 -68 41
-96 58 -92 60 -198 79 -280 50z m111 -165 c40 -9 188 -93 228 -128 30 -28 56
-89 56 -134 -1 -122 -62 -280 -143 -365 -60 -64 -110 -95 -188 -118 -55 -15
-58 -15 -133 9 -139 44 -272 140 -318 230 -22 43 -21 73 5 196 19 91 37 120
109 178 83 65 112 79 194 92 38 6 85 19 104 30 42 22 36 22 86 10z"/>
</g>
</svg>
